<?xml version="1.0" standalone="no"?>
<!DOCTYPE svg PUBLIC "-//W3C//DTD SVG 20010904//EN"
 "http://www.w3.org/TR/2001/REC-SVG-20010904/DTD/svg10.dtd">
<svg version="1.0" xmlns="http://www.w3.org/2000/svg"
 width="663.000000pt" height="663.000000pt" viewBox="0 0 663.000000 663.000000"
 preserveAspectRatio="xMidYMid meet">
<metadata>
Created by potrace 1.11, written by Peter Selinger 2001-2013
</metadata>
<g transform="translate(0.000000,663.000000) scale(0.100000,-0.100000)"
fill="#000000" stroke="none">
<path d="M3099 5226 c-2 -2 -33 -7 -69 -10 -526 -54 -1037 -377 -1354 -855
-198 -297 -291 -602 -310 -1014 -2 -52 -8 -73 -22 -86 -10 -10 -80 -56 -154
-102 -243 -151 -569 -379 -665 -466 -12 -10 -50 -43 -85 -73 -152 -127 -309
-305 -375 -424 -124 -223 -67 -425 146 -514 83 -34 191 -59 295 -67 90 -7 303
-7 379 0 33 3 84 8 112 10 75 7 165 17 183 20 32 6 96 16 125 20 108 14 439
83 610 127 140 36 168 38 204 9 182 -144 432 -266 670 -327 201 -52 265 -59
526 -58 198 0 232 3 346 27 238 50 457 143 674 286 39 25 72 48 75 51 3 3 32
25 65 50 86 64 263 242 333 335 186 248 315 559 358 860 11 75 21 85 210 200
402 245 647 420 848 605 288 266 406 449 406 627 0 67 -25 140 -62 183 -104
121 -355 185 -693 175 -152 -4 -181 -6 -266 -20 -20 -4 -51 -8 -70 -10 -50 -5
-219 -36 -524 -95 -82 -16 -163 -32 -179 -34 -16 -3 -53 -10 -83 -16 -29 -6
-61 -9 -70 -6 -10 4 -47 34 -83 67 -290 270 -671 457 -1045 513 -77 11 -446
21 -456 12z m431 -140 c203 -36 341 -81 535 -176 361 -178 622 -433 795 -779
58 -117 124 -297 146 -401 4 -19 9 -39 10 -45 8 -30 15 -64 20 -95 3 -19 7
-41 9 -48 3 -6 7 -74 11 -150 8 -176 1 -195 -88 -248 -75 -44 -671 -346 -778
-394 -41 -18 -106 -48 -145 -65 -122 -56 -355 -155 -505 -214 -80 -32 -154
-62 -165 -66 -162 -65 -500 -184 -735 -258 -80 -25 -225 -71 -324 -102 -100
-32 -188 -54 -200 -51 -46 11 -228 212 -328 360 -109 163 -188 340 -232 516
-25 103 -28 119 -41 210 -10 70 -12 266 -4 355 15 165 21 203 49 322 135 567
495 974 1080 1218 102 43 259 91 330 100 24 4 47 8 50 10 4 2 40 7 81 11 41 3
75 7 77 9 9 8 274 -6 352 -19z m2705 -430 c112 -25 199 -68 235 -117 25 -34
28 -48 26 -92 -5 -90 -59 -194 -161 -312 -207 -238 -516 -479 -979 -764 -81
-50 -152 -91 -156 -91 -4 0 -9 37 -9 83 -1 45 -3 93 -5 107 -3 14 -7 54 -11
90 -25 264 -150 590 -320 840 -41 61 -74 110 -72 110 2 0 64 13 138 29 219 48
431 89 498 96 24 2 51 7 60 9 16 5 64 11 201 22 41 4 76 8 78 9 2 2 92 2 200
1 143 -2 219 -7 277 -20z m-4811 -1796 c82 -317 239 -605 465 -850 50 -54 57
-66 43 -73 -30 -13 -630 -140 -717 -151 -28 -4 -59 -8 -70 -10 -11 -2 -45 -7
-75 -11 -30 -4 -66 -9 -80 -12 -14 -2 -115 -6 -225 -8 -170 -4 -260 1 -335 18
-8 2 -33 7 -54 12 -55 11 -150 49 -184 74 -66 46 -74 127 -25 232 78 168 248
353 523 572 60 48 202 146 425 295 l260 173 16 -98 c9 -54 24 -127 33 -163z
m3591 109 c-16 -107 -112 -375 -178 -499 -197 -367 -499 -634 -902 -797 -89
-36 -213 -77 -270 -89 -209 -46 -470 -55 -648 -24 -164 29 -317 77 -462 145
-87 41 -282 152 -290 165 -2 4 23 15 58 25 90 25 661 216 802 268 160 59 460
175 510 197 22 10 90 38 150 63 293 121 533 232 920 428 171 86 311 157 313
158 2 0 0 -17 -3 -40z"/>
</g>
</svg>
